<?xml version="1.0" encoding="UTF-8" standalone="no"?>
<svg width="200" height="120" viewBox="0 0 200 120" fill="none" xmlns="http://www.w3.org/2000/svg">
  <!-- Grid -->
  <g stroke="#333333" stroke-opacity="0.1" stroke-width="1">
    <line x1="0" y1="0" x2="200" y2="0" />
    <line x1="0" y1="30" x2="200" y2="30" />
    <line x1="0" y1="60" x2="200" y2="60" />
    <line x1="0" y1="90" x2="200" y2="90" />
    <line x1="0" y1="120" x2="200" y2="120" />
    
    <line x1="0" y1="0" x2="0" y2="120" />
    <line x1="40" y1="0" x2="40" y2="120" />
    <line x1="80" y1="0" x2="80" y2="120" />
    <line x1="120" y1="0" x2="120" y2="120" />
    <line x1="160" y1="0" x2="160" y2="120" />
    <line x1="200" y1="0" x2="200" y2="120" />
  </g>
  
  <!-- Bear Flag Pattern -->
  <!-- Flag Pole -->
  <path d="M 20,20 L 20,100" 
        stroke="#ff6b6b" 
        stroke-width="2.5" 
        fill="none" />
  
  <!-- Flag -->
  <path d="M 20,100 L 40,90 L 60,95 L 80,85 L 100,90 L 120,80 L 140,85" 
        stroke="#ff6b6b" 
        stroke-width="2.5" 
        fill="none"
        stroke-linejoin="round" />
  
  <!-- Possible continuation -->
  <path d="M 140,85 L 160,100 L 180,105" 
        stroke="#ff6b6b" 
        stroke-width="2.5" 
        stroke-dasharray="4"
        fill="none" />
        
  <!-- Flag Channel -->
  <line x1="20" y1="105" x2="140" y2="90" 
        stroke="#5073b8" 
        stroke-width="1.5" 
        stroke-dasharray="4" />
  <line x1="20" y1="95" x2="140" y2="80" 
        stroke="#5073b8" 
        stroke-width="1.5" 
        stroke-dasharray="4" />
</svg>