<?xml version="1.0" encoding="UTF-8" standalone="no"?>
<svg width="200" height="120" viewBox="0 0 200 120" fill="none" xmlns="http://www.w3.org/2000/svg">
  <!-- Grid -->
  <g stroke="#333333" stroke-opacity="0.1" stroke-width="1">
    <line x1="0" y1="0" x2="200" y2="0" />
    <line x1="0" y1="30" x2="200" y2="30" />
    <line x1="0" y1="60" x2="200" y2="60" />
    <line x1="0" y1="90" x2="200" y2="90" />
    <line x1="0" y1="120" x2="200" y2="120" />
    
    <line x1="0" y1="0" x2="0" y2="120" />
    <line x1="40" y1="0" x2="40" y2="120" />
    <line x1="80" y1="0" x2="80" y2="120" />
    <line x1="120" y1="0" x2="120" y2="120" />
    <line x1="160" y1="0" x2="160" y2="120" />
    <line x1="200" y1="0" x2="200" y2="120" />
  </g>
  
  <!-- Cup and Handle Pattern -->
  <!-- Cup -->
  <path d="M 20,30 L 30,40 L 40,55 L 50,70 L 70,80 L 90,85 L 110,80 L 130,70 L 140,55 L 150,40 L 160,30" 
        stroke="#4da6ff" 
        stroke-width="2.5" 
        fill="none"
        stroke-linejoin="round" />
        
  <!-- Handle -->
  <path d="M 160,30 L 170,40 L 180,35 L 190,25" 
        stroke="#4da6ff" 
        stroke-width="2.5" 
        fill="none"
        stroke-linejoin="round" />
        
  <!-- Resistance Line -->
  <line x1="20" y1="30" x2="160" y2="30" 
        stroke="#5073b8" 
        stroke-width="1.5" 
        stroke-dasharray="4" />
        
  <!-- Important Points -->
  <circle cx="20" cy="30" r="3" fill="#5073b8" /> <!-- Left lip -->
  <circle cx="90" cy="85" r="3" fill="#4da6ff" /> <!-- Bottom of cup -->
  <circle cx="160" cy="30" r="3" fill="#5073b8" /> <!-- Right lip/start of handle -->
  <circle cx="180" cy="35" r="3" fill="#4da6ff" /> <!-- Handle dip -->
</svg>