<?xml version="1.0" encoding="UTF-8" standalone="no"?>
<svg width="200" height="120" viewBox="0 0 200 120" fill="none" xmlns="http://www.w3.org/2000/svg">
  <!-- Grid -->
  <g stroke="#333333" stroke-opacity="0.1" stroke-width="1">
    <line x1="0" y1="0" x2="200" y2="0" />
    <line x1="0" y1="30" x2="200" y2="30" />
    <line x1="0" y1="60" x2="200" y2="60" />
    <line x1="0" y1="90" x2="200" y2="90" />
    <line x1="0" y1="120" x2="200" y2="120" />
    
    <line x1="0" y1="0" x2="0" y2="120" />
    <line x1="40" y1="0" x2="40" y2="120" />
    <line x1="80" y1="0" x2="80" y2="120" />
    <line x1="120" y1="0" x2="120" y2="120" />
    <line x1="160" y1="0" x2="160" y2="120" />
    <line x1="200" y1="0" x2="200" y2="120" />
  </g>
  
  <!-- Double Top Pattern -->
  <path d="M 10,100 L 30,75 L 50,20 L 70,45 L 90,20 L 110,45 L 130,80 L 150,60 L 170,90 L 190,80" 
        stroke="#ff6b6b" 
        stroke-width="2.5" 
        fill="none"
        stroke-linejoin="round" />
        
  <!-- Neckline -->
  <line x1="70" y1="45" x2="110" y2="45" 
        stroke="#5073b8" 
        stroke-width="1.5" 
        stroke-dasharray="4" />
        
  <!-- Important Points -->
  <circle cx="50" cy="20" r="3" fill="#ff6b6b" />
  <circle cx="90" cy="20" r="3" fill="#ff6b6b" />
  <circle cx="70" cy="45" r="3" fill="#5073b8" />
  <circle cx="110" cy="45" r="3" fill="#5073b8" />
</svg>