<?xml version="1.0" encoding="UTF-8" standalone="no"?>
<svg width="200" height="120" viewBox="0 0 200 120" fill="none" xmlns="http://www.w3.org/2000/svg">
  <!-- Grid -->
  <g stroke="#333333" stroke-opacity="0.1" stroke-width="1">
    <line x1="0" y1="0" x2="200" y2="0" />
    <line x1="0" y1="30" x2="200" y2="30" />
    <line x1="0" y1="60" x2="200" y2="60" />
    <line x1="0" y1="90" x2="200" y2="90" />
    <line x1="0" y1="120" x2="200" y2="120" />
    
    <line x1="0" y1="0" x2="0" y2="120" />
    <line x1="40" y1="0" x2="40" y2="120" />
    <line x1="80" y1="0" x2="80" y2="120" />
    <line x1="120" y1="0" x2="120" y2="120" />
    <line x1="160" y1="0" x2="160" y2="120" />
    <line x1="200" y1="0" x2="200" y2="120" />
  </g>
  
  <!-- Rectangle Pattern -->
  <path d="M 10,50 L 30,30 L 50,70 L 70,30 L 90,70 L 110,30 L 130,70 L 150,30 L 170,70 L 190,30" 
        stroke="#7a7cff" 
        stroke-width="2.5" 
        fill="none"
        stroke-linejoin="round" />
        
  <!-- Resistance Line -->
  <line x1="10" y1="30" x2="190" y2="30" 
        stroke="#5073b8" 
        stroke-width="1.5" 
        stroke-dasharray="4" />
        
  <!-- Support Line -->
  <line x1="10" y1="70" x2="190" y2="70" 
        stroke="#5073b8" 
        stroke-width="1.5" 
        stroke-dasharray="4" />
        
  <!-- Important Points -->
  <circle cx="30" cy="30" r="3" fill="#7a7cff" /> <!-- Top touch -->
  <circle cx="50" cy="70" r="3" fill="#7a7cff" /> <!-- Bottom touch -->
  <circle cx="110" cy="30" r="3" fill="#7a7cff" /> <!-- Top touch -->
  <circle cx="130" cy="70" r="3" fill="#7a7cff" /> <!-- Bottom touch -->
</svg>