<?xml version="1.0" encoding="UTF-8" standalone="no"?>
<svg width="200" height="120" viewBox="0 0 200 120" fill="none" xmlns="http://www.w3.org/2000/svg">
  <!-- Grid -->
  <g stroke="#333333" stroke-opacity="0.1" stroke-width="1">
    <line x1="0" y1="0" x2="200" y2="0" />
    <line x1="0" y1="30" x2="200" y2="30" />
    <line x1="0" y1="60" x2="200" y2="60" />
    <line x1="0" y1="90" x2="200" y2="90" />
    <line x1="0" y1="120" x2="200" y2="120" />
    
    <line x1="0" y1="0" x2="0" y2="120" />
    <line x1="40" y1="0" x2="40" y2="120" />
    <line x1="80" y1="0" x2="80" y2="120" />
    <line x1="120" y1="0" x2="120" y2="120" />
    <line x1="160" y1="0" x2="160" y2="120" />
    <line x1="200" y1="0" x2="200" y2="120" />
  </g>
  
  <!-- Rounding Bottom Pattern -->
  <path d="M 10,40 L 20,50 L 30,60 L 45,70 L 60,80 L 80,85 L 100,87 L 120,85 L 140,80 L 155,70 L 170,60 L 180,50 L 190,40" 
        stroke="#4da6ff" 
        stroke-width="2.5" 
        fill="none"
        stroke-linejoin="round" />
        
  <!-- Resistance/Support Lines -->
  <line x1="10" y1="40" x2="190" y2="40" 
        stroke="#5073b8" 
        stroke-width="1.5" 
        stroke-dasharray="4" />
        
  <!-- Important Points -->
  <circle cx="10" cy="40" r="3" fill="#5073b8" /> <!-- Left side -->
  <circle cx="100" cy="87" r="3" fill="#4da6ff" /> <!-- Bottom of curve -->
  <circle cx="190" cy="40" r="3" fill="#5073b8" /> <!-- Right side -->
</svg>