<?xml version="1.0" encoding="UTF-8" standalone="no"?>
<svg width="200" height="120" viewBox="0 0 200 120" fill="none" xmlns="http://www.w3.org/2000/svg">
  <!-- Grid -->
  <g stroke="#333333" stroke-opacity="0.1" stroke-width="1">
    <line x1="0" y1="0" x2="200" y2="0" />
    <line x1="0" y1="30" x2="200" y2="30" />
    <line x1="0" y1="60" x2="200" y2="60" />
    <line x1="0" y1="90" x2="200" y2="90" />
    <line x1="0" y1="120" x2="200" y2="120" />
    
    <line x1="0" y1="0" x2="0" y2="120" />
    <line x1="40" y1="0" x2="40" y2="120" />
    <line x1="80" y1="0" x2="80" y2="120" />
    <line x1="120" y1="0" x2="120" y2="120" />
    <line x1="160" y1="0" x2="160" y2="120" />
    <line x1="200" y1="0" x2="200" y2="120" />
  </g>
  
  <!-- Symmetrical Triangle Pattern -->
  <path d="M 20,20 L 40,40 L 60,30 L 80,45 L 100,40 L 120,50 L 140,45 L 160,55 L 180,45" 
        stroke="#7a7cff" 
        stroke-width="2.5" 
        fill="none"
        stroke-linejoin="round" />
        
  <!-- Resistance Line -->
  <line x1="20" y1="20" x2="160" y2="55" 
        stroke="#5073b8" 
        stroke-width="1.5" 
        stroke-dasharray="4" />
        
  <!-- Support Line -->
  <line x1="40" y1="40" x2="180" y2="45" 
        stroke="#5073b8" 
        stroke-width="1.5" 
        stroke-dasharray="4" />
        
  <!-- Important Points -->
  <circle cx="20" cy="20" r="3" fill="#7a7cff" /> <!-- Initial high -->
  <circle cx="40" cy="40" r="3" fill="#7a7cff" /> <!-- Initial low -->
  <circle cx="60" cy="30" r="3" fill="#7a7cff" /> <!-- Lower high -->
  <circle cx="80" cy="45" r="3" fill="#7a7cff" /> <!-- Higher low -->
  <circle cx="160" cy="55" r="3" fill="#5073b8" /> <!-- Resistance line end -->
  <circle cx="180" cy="45" r="3" fill="#5073b8" /> <!-- Support line end -->
</svg>