<?xml version="1.0" encoding="UTF-8" standalone="no"?>
<svg width="200" height="120" viewBox="0 0 200 120" fill="none" xmlns="http://www.w3.org/2000/svg">
  <!-- Grid -->
  <g stroke="#333333" stroke-opacity="0.1" stroke-width="1">
    <line x1="0" y1="0" x2="200" y2="0" />
    <line x1="0" y1="30" x2="200" y2="30" />
    <line x1="0" y1="60" x2="200" y2="60" />
    <line x1="0" y1="90" x2="200" y2="90" />
    <line x1="0" y1="120" x2="200" y2="120" />
    
    <line x1="0" y1="0" x2="0" y2="120" />
    <line x1="40" y1="0" x2="40" y2="120" />
    <line x1="80" y1="0" x2="80" y2="120" />
    <line x1="120" y1="0" x2="120" y2="120" />
    <line x1="160" y1="0" x2="160" y2="120" />
    <line x1="200" y1="0" x2="200" y2="120" />
  </g>
  
  <!-- Falling Wedge Pattern -->
  <path d="M 20,20 L 40,35 L 60,45 L 80,55 L 100,60 L 120,75 L 140,80 L 160,90 L 180,95" 
        stroke="#4da6ff" 
        stroke-width="2.5" 
        fill="none"
        stroke-linejoin="round" />
        
  <!-- Upper Resistance Line -->
  <line x1="20" y1="20" x2="160" y2="90" 
        stroke="#5073b8" 
        stroke-width="1.5" 
        stroke-dasharray="4" />
        
  <!-- Lower Support Line -->
  <line x1="40" y1="35" x2="180" y2="95" 
        stroke="#5073b8" 
        stroke-width="1.5" 
        stroke-dasharray="4" />
        
  <!-- Important Points -->
  <circle cx="40" cy="35" r="3" fill="#4da6ff" /> <!-- First trough -->
  <circle cx="80" cy="55" r="3" fill="#4da6ff" /> <!-- Middle trough -->
  <circle cx="140" cy="80" r="3" fill="#4da6ff" /> <!-- Last trough -->
</svg>